<?xml version="1.0" encoding="UTF-8"?>
<svg version="1.1" xmlns="http://www.w3.org/2000/svg" width="1952" height="824">
<path d="M0 0 C644.16 0 1288.32 0 1952 0 C1952 271.92 1952 543.84 1952 824 C1307.84 824 663.68 824 0 824 C0 552.08 0 280.16 0 0 Z " fill="#FDFDFE" transform="translate(0,0)"/>
<path d="M0 0 C14.52 0 29.04 0 44 0 C47.52340106 7.63403563 50.99929413 15.1940609 54.1796875 22.9609375 C54.73521049 24.30791214 54.73521049 24.30791214 55.30195618 25.68209839 C56.49572407 28.57860775 57.68553138 31.47672278 58.875 34.375 C59.70725825 36.39818599 60.53969891 38.42129696 61.37231445 40.44433594 C63.07437955 44.58110615 64.77473658 48.71857327 66.47412109 52.85644531 C68.52136459 57.83921578 70.57619383 62.81880584 72.63476562 67.79690552 C74.13403819 71.42324748 75.63045861 75.05076186 77.12628174 78.67852783 C77.83200154 80.38858024 78.53882411 82.09817797 79.24676514 83.80731201 C80.22378914 86.16707584 81.19643501 88.52859659 82.16796875 90.890625 C82.45763016 91.58735321 82.74729156 92.28408142 83.04573059 93.00192261 C85 97.77175095 85 97.77175095 85 100 C85.66 100 86.32 100 87 100 C87.08652832 99.36827881 87.17305664 98.73655762 87.26220703 98.08569336 C88.30446292 93.72663574 90.0592648 89.74903458 91.8046875 85.62890625 C92.19610428 84.69421509 92.58752106 83.75952393 92.99079895 82.79650879 C94.2813812 79.71674578 95.57820957 76.63965345 96.875 73.5625 C98.69329571 69.22995814 100.50860071 64.89616453 102.32421875 60.5625 C102.79009903 59.45181656 103.25597931 58.34113312 103.73597717 57.1967926 C107.02451974 49.35070239 110.28193209 41.492239 113.51953125 33.625 C113.95765137 32.5607933 114.39577148 31.49658661 114.84716797 30.40013123 C116.54816165 26.2668002 118.24835698 22.13314965 119.94451904 17.99783325 C121.11065582 15.15524048 122.27969381 12.31385632 123.44921875 9.47265625 C123.79620316 8.62392944 124.14318756 7.77520264 124.50068665 6.90075684 C126.88653704 1.11346296 126.88653704 1.11346296 128 0 C130.15159726 -0.096937 132.30644111 -0.12186783 134.46022034 -0.12025452 C135.14302801 -0.12110894 135.82583568 -0.12196337 136.52933449 -0.12284368 C138.83411691 -0.12450043 141.13882772 -0.11897397 143.44360352 -0.11352539 C145.08905028 -0.11324353 146.73449716 -0.11340122 148.37994385 -0.1139679 C152.86115759 -0.11425593 157.34234481 -0.10835821 161.82355237 -0.10139394 C166.50142105 -0.09516142 171.17929028 -0.09455668 175.85716248 -0.09336853 C184.72175168 -0.09025491 193.58632862 -0.08204111 202.45091242 -0.07201904 C212.54022202 -0.06085885 222.6295322 -0.05534769 232.71884644 -0.05032361 C253.47923782 -0.03985852 274.23961814 -0.02225849 295 0 C295.12938271 4.36430463 295.20789043 8.72811275 295.27734375 13.09375 C295.31452515 14.32706055 295.35170654 15.56037109 295.39001465 16.83105469 C295.47404268 23.8657392 295.48045549 28.27021854 290.5625 33.5 C288.73160086 35.02831357 286.87770484 36.52957198 285 38 C283.51537545 39.71020355 282.07753898 41.46206882 280.6875 43.25 C277.05239044 47.75367556 273.30442653 52.13988302 269.5 56.5 C265.76581042 60.78202781 262.07540724 65.08332047 258.5 69.5 C254.92458131 73.91669367 251.23393065 78.21773362 247.5 82.5 C242.9757339 87.69095894 238.53946914 92.935809 234.20703125 98.2890625 C232.5723361 100.29698893 230.92594242 102.29026174 229.26171875 104.2734375 C228.80176514 104.82169189 228.34181152 105.36994629 227.86791992 105.93481445 C226.56951347 107.47978604 225.26918567 109.02314231 223.96875 110.56640625 C221.99891908 112.82311036 221.99891908 112.82311036 221 115 C246.41 115 271.82 115 298 115 C298 126.22 298 137.44 298 149 C254.11 149 210.22 149 165 149 C165 123 165 123 168.75 116.75 C170.47202146 115.13628177 172.22456532 113.55475919 174 112 C176.06995523 109.72498896 178.0287994 107.36060457 180 105 C181.03111094 103.7995419 182.06364353 102.60030331 183.09765625 101.40234375 C185.59150355 98.49299049 188.02584272 95.54056486 190.4375 92.5625 C194.58060991 87.45692535 198.8823045 82.50199947 203.20288086 77.54711914 C206.36465838 73.91262149 209.46850206 70.24479157 212.5 66.5 C216.61042489 61.42241631 220.88331938 56.49996261 225.17675781 51.57763672 C229.3458058 46.78606678 233.39785461 41.91652295 237.390625 36.9765625 C239 35 239 35 240 34 C215.91 33.67 191.82 33.34 167 33 C166.67 24.75 166.34 16.5 166 8 C163.15573671 14.67782941 163.15573671 14.67782941 160.31149292 21.35566711 C158.07133835 26.61521564 155.83113942 31.87474525 153.59077835 37.13420582 C152.24929528 40.28347001 150.90784308 43.43274736 149.56640625 46.58203125 C149.29405151 47.22143583 149.02169678 47.86084042 148.74108887 48.5196209 C144.37577326 58.76821019 140.01272294 69.01776202 135.65107727 79.26791382 C133.27642339 84.84781006 130.90020579 90.42703157 128.52075195 96.00488281 C127.57111864 98.23111652 126.62149297 100.4573535 125.671875 102.68359375 C124.97121162 104.32601547 124.97121162 104.32601547 124.25639343 106.00161743 C121.37310681 112.76491768 118.50422338 119.53413803 115.64547729 126.30784607 C113.76043034 130.77074848 111.86803277 135.23051254 109.97442627 139.68978882 C109.09178807 141.77318464 108.21238116 143.85795312 107.33660889 145.94424438 C88.58900163 190.59106605 88.58900163 190.59106605 67.4296875 199.50390625 C50.80651519 205.59444224 29.52434756 207.57539359 13 200 C8.48984109 197.59682937 4.21765512 194.88650151 0 192 C0.62363907 187.83004576 2.0383738 184.57485553 3.94140625 180.82421875 C4.52470703 179.66728516 5.10800781 178.51035156 5.70898438 177.31835938 C6.32669206 176.10800613 6.94453227 174.8977205 7.5625 173.6875 C8.18479856 172.45796241 8.80654918 171.22814733 9.42773438 169.99804688 C10.94645512 166.99592448 12.4707102 163.99674847 14 161 C17.02720785 162.19249878 19.89641808 163.4390663 22.75 165 C30.62000597 168.97205574 39.10090486 170.32410794 47.625 167.75 C54.78054226 165.09845388 57.94845725 160.93813861 61.9609375 154.6328125 C63.88541205 149.75651232 61.94020662 145.63280135 60.01318359 141.0090332 C59.14848272 139.01994365 58.27641235 137.0340475 57.3984375 135.05078125 C56.69638435 133.44268082 56.69638435 133.44268082 55.98014832 131.80209351 C54.97477456 129.50131302 53.96632485 127.20187466 52.95510864 124.90365601 C51.35723041 121.27211456 49.76692682 117.63731321 48.17944336 114.0012207 C46.07048053 109.17208285 43.95916 104.34398791 41.84619141 99.51660156 C38.38009089 91.58980889 34.9593764 83.64415866 31.5625 75.6875 C30.41681681 73.00514417 29.27095962 70.32286274 28.125 67.640625 C27.82349533 66.93463165 27.52199066 66.22863831 27.21134949 65.50125122 C24.62366242 59.44696188 22.02076992 53.39925662 19.41590881 47.3523407 C17.46642174 42.82667836 15.51948546 38.29991988 13.57302761 33.77295399 C12.18296991 30.54048416 10.79159209 27.30859556 9.39724731 24.07797241 C7.83516192 20.45859783 6.27872427 16.83680972 4.72265625 13.21484375 C4.24534058 12.11142639 3.7680249 11.00800903 3.27624512 9.87115479 C2.84356323 8.86171814 2.41088135 7.85228149 1.96508789 6.81225586 C1.58397354 5.92743027 1.20285919 5.04260468 0.81019592 4.13096619 C0 2 0 2 0 0 Z " fill="#6B95A1" transform="translate(1317,323)"/>
<path d="M0 0 C2.68855244 2.17953807 5.32378938 4.42451099 7.94921875 6.6796875 C7.94921875 1.3996875 7.94921875 -3.8803125 7.94921875 -9.3203125 C21.47921875 -9.3203125 35.00921875 -9.3203125 48.94921875 -9.3203125 C48.94921875 57.3396875 48.94921875 123.9996875 48.94921875 192.6796875 C34.75921875 192.6796875 20.56921875 192.6796875 5.94921875 192.6796875 C5.94921875 170.2396875 5.94921875 147.7996875 5.94921875 124.6796875 C1.98921875 127.6496875 -1.97078125 130.6196875 -6.05078125 133.6796875 C-14.45173352 138.51659941 -23.3624969 141.19527328 -33.05078125 141.6796875 C-34.8296875 141.77636719 -34.8296875 141.77636719 -36.64453125 141.875 C-56.31898018 142.60089588 -75.23521852 135.64067054 -90.05078125 122.6796875 C-105.61913503 108.09823412 -112.05485732 89.29509201 -113.23828125 68.36328125 C-113.6352852 48.14089277 -108.4402698 31.17892563 -97.05078125 14.6796875 C-96.63183594 14.06738281 -96.21289062 13.45507812 -95.78125 12.82421875 C-85.98229701 -0.09100904 -68.00692072 -8.46008244 -52.28759766 -11.0390625 C-34.21562552 -13.31137334 -14.85812151 -11.30054312 0 0 Z " fill="#6B95A1" transform="translate(903.05078125,332.3203125)"/>
<path d="M0 0 C48.51 0 97.02 0 147 0 C147 11.88 147 23.76 147 36 C113.34 36 79.68 36 45 36 C45 49.86 45 63.72 45 78 C74.37 78 103.74 78 134 78 C134 89.55 134 101.1 134 113 C104.63 113 75.26 113 45 113 C45 127.85 45 142.7 45 158 C79.65 158 114.3 158 150 158 C150 169.88 150 181.76 150 194 C100.5 194 51 194 0 194 C0 129.98 0 65.96 0 0 Z " fill="#6C95A1" transform="translate(630,278)"/>
<path d="M0 0 C0.62438965 0.25700684 1.2487793 0.51401367 1.89208984 0.77880859 C17.13000284 7.26158746 30.07178252 18.37429916 38 33 C38.34675781 33.62777344 38.69351562 34.25554687 39.05078125 34.90234375 C46.67878896 50.24671448 46 65.95948718 46 83 C9.04 83.33 -27.92 83.66 -66 84 C-61.54445763 96.25274153 -58.04872735 102.9504213 -46.25 108.5625 C-32.40175201 114.46640283 -15.0992722 113.92523174 -1.1484375 108.58203125 C2.77452309 106.61081656 5.97881177 104.26455222 9.16796875 101.2578125 C11 100 11 100 13 100.08203125 C15.47490285 101.21797299 16.92557876 102.59871843 18.8125 104.5625 C19.50601562 105.28179687 20.19953125 106.00109375 20.9140625 106.7421875 C23.46668173 109.5051349 25.9484878 112.31937302 28.38671875 115.18359375 C29.84774885 116.82857921 31.36765415 118.27953968 33 119.75 C33.66 120.4925 34.32 121.235 35 122 C34.75074098 125.85949453 32.67885929 127.70543278 29.9375 130.25 C18.92466022 139.75895269 6.06228946 144.16188685 -8 147 C-8.78729492 147.17362061 -9.57458984 147.34724121 -10.38574219 147.52612305 C-32.89735127 151.6067201 -57.98431651 146.08181515 -77.2578125 133.94921875 C-81.89644607 130.66506618 -86.18453589 127.22794671 -90 123 C-90.59039063 122.42507813 -91.18078125 121.85015625 -91.7890625 121.2578125 C-105.41700338 107.31416642 -110.37771618 88.53249459 -110.30200195 69.55639648 C-109.9303969 50.9255498 -102.9156127 31.67710937 -90.046875 17.92578125 C-66.35804174 -4.3616134 -30.5134858 -12.70140684 0 0 Z " fill="#6B95A1" transform="translate(1730,326)"/>
<path d="M0 0 C14.19 0 28.38 0 43 0 C43.04898438 5.61257813 43.09796875 11.22515625 43.1484375 17.0078125 C43.18387459 20.58986043 43.21986344 24.17188619 43.2578125 27.75390625 C43.31783111 33.42395644 43.37594313 39.09397606 43.421875 44.76416016 C43.45908658 49.34193445 43.50553715 53.9195348 43.55806351 58.49715805 C43.57641895 60.23277573 43.59159425 61.96843041 43.60334396 63.70410538 C43.17193371 86.24863537 43.17193371 86.24863537 52.671875 105.875 C59.06287537 111.75698264 66.49771064 113.06352894 75 113 C82.96184123 112.10462205 89.48580717 110.62246359 95.546875 105.20703125 C97 104 97 104 99 104 C99.28875 103.41476562 99.5775 102.82953125 99.875 102.2265625 C100.55794886 100.87489288 101.26111033 99.5328573 102 98.2109375 C107.98959012 87.21442439 107.33473581 75.25713434 107.4140625 63.0859375 C107.43280013 61.26176096 107.45237542 59.43759285 107.4727478 57.61343384 C107.52380107 52.84276326 107.56356925 48.07206466 107.60089111 43.30126953 C107.64818578 37.56077463 107.70966743 31.82041583 107.76873779 26.08003235 C107.85662276 17.38674399 107.92662103 8.69347737 108 0 C122.19 0 136.38 0 151 0 C151 49.17 151 98.34 151 149 C137.47 149 123.94 149 110 149 C109.67 143.39 109.34 137.78 109 132 C108.13375 132.99 107.2675 133.98 106.375 135 C94.8653504 146.41701661 79.45811058 151.3153655 63.5625 151.5 C46.39405835 151.33126085 30.73204135 145.97405584 17.609375 134.671875 C9.43357289 126.3002453 4.51107007 116.4104065 2 105 C1.83359512 104.34655609 1.66719025 103.69311218 1.4957428 103.01986694 C-0.75198169 92.93163839 -0.24942847 82.63601488 -0.1953125 72.36328125 C-0.19157664 70.27150102 -0.18873238 68.17971902 -0.18673706 66.0879364 C-0.17914571 60.61519434 -0.1595364 55.1425605 -0.1373291 49.66986084 C-0.11315124 43.08594244 -0.10406825 36.50198761 -0.09242249 29.91803741 C-0.07310899 19.94528329 -0.03475504 9.97276606 0 0 Z " fill="#6B95A1" transform="translate(979,323)"/>
<path d="M0 0 C14.19 0 28.38 0 43 0 C43 11.88 43 23.76 43 36 C55.21 36 67.42 36 80 36 C80 46.89 80 57.78 80 69 C68.12 69.33 56.24 69.66 44 70 C43.93693193 78.05168994 43.87684539 86.1024751 43.84474945 94.15419769 C43.82896693 97.90442065 43.80790804 101.65443718 43.77368164 105.40454102 C43.74087046 109.02259402 43.72310164 112.64044797 43.71536827 116.25863838 C43.70986349 117.63281954 43.69911487 119.00699091 43.68280983 120.38108635 C43.57984668 129.42531007 43.57980755 137.53474875 49.25 144.9375 C55.02563125 149.26922344 60.43615636 149.27582283 67.34375 148.48828125 C70.9363234 147.82788173 73.73767614 146.63116193 77 145 C77.99 144.67 78.98 144.34 80 144 C81.57079658 148.09181876 83.13726331 152.18526016 84.69970703 156.28027344 C85.2320421 157.67363368 85.76556577 159.0665404 86.30029297 160.45898438 C87.06789756 162.45845906 87.83123788 164.45951617 88.59375 166.4609375 C89.05458984 167.66540527 89.51542969 168.86987305 89.99023438 170.11083984 C91 173 91 173 91 175 C73.93860021 184.59212339 54.00671356 187.41752944 34.953125 182.10546875 C21.75934194 177.16652615 11.0366527 169.9689512 5 157 C3.45551422 152.71688926 2.16283689 148.40089039 1 144 C0.82163101 143.42243958 0.64326202 142.84487915 0.45948792 142.24981689 C-0.16749727 139.17987357 -0.11916078 136.25339281 -0.11352539 133.12011719 C-0.11367142 132.43678314 -0.11381744 131.7534491 -0.1139679 131.04940796 C-0.11327315 128.79853096 -0.10550132 126.54773748 -0.09765625 124.296875 C-0.09579051 122.7331751 -0.09436734 121.16947462 -0.09336853 119.60577393 C-0.08955562 115.49583311 -0.0797358 111.38592779 -0.06866455 107.27600098 C-0.05842407 103.07983887 -0.05386526 98.88367101 -0.04882812 94.6875 C-0.03811242 86.45831525 -0.02052555 78.22916613 0 70 C-7.59 70 -15.18 70 -23 70 C-23 58.78 -23 47.56 -23 36 C-15.41 36 -7.82 36 0 36 C0 24.12 0 12.24 0 0 Z " fill="#6C95A1" transform="translate(1235,290)"/>
<path d="M0 0 C22.44 0 44.88 0 68 0 C68.68184976 24.52430864 68.68184976 24.52430864 68.83007812 35.07226562 C68.9312716 42.23894288 69.05023352 49.40188889 69.2824707 56.56567383 C69.46878211 62.3497613 69.56914443 68.12984546 69.61291313 73.91670418 C69.64405021 76.11104404 69.70486086 78.30519247 69.79741096 80.49780083 C70.52505044 98.47025521 70.52505044 98.47025521 64.3835144 106.00784302 C60.25130025 110.42013522 55.70863932 114.22545394 51 118 C46.60755659 121.74430339 42.32041028 125.55256192 38.25219727 129.65014648 C37.41515762 130.49048935 36.57811798 131.33083221 35.7157135 132.19664001 C34.40430641 133.52049461 34.40430641 133.52049461 33.06640625 134.87109375 C31.66343442 136.27984922 30.26045993 137.68860204 28.85732174 139.09719181 C26.42354997 141.54181098 23.99314776 143.98977532 21.5625 146.4375 C18.63238778 149.38800938 15.70166661 152.3378962 12.76707458 155.28395081 C10.94627412 157.11231251 9.12774463 158.94293901 7.31166077 160.77598572 C6.49668625 161.59426346 5.68171173 162.4125412 4.84204102 163.25561523 C4.12226578 163.98062729 3.40249054 164.70563934 2.66090393 165.45262146 C1 167 1 167 0 167 C0 111.89 0 56.78 0 0 Z " fill="#6B95A1" transform="translate(412,240)"/>
<path d="M0 0 C13.86 0 27.72 0 42 0 C42 49.17 42 98.34 42 149 C28.14 149 14.28 149 0 149 C0 99.83 0 50.66 0 0 Z " fill="#6B95A1" transform="translate(1159,323)"/>
<path d="M0 0 C1.72391056 2.96895707 0.8051421 5.72134519 0.125 8.9375 C-0.71924895 12.06921147 -1.70434112 15.14757243 -2.7109375 18.23046875 C-3.13096542 19.53314445 -3.13096542 19.53314445 -3.55947876 20.86213684 C-4.15003553 22.68759583 -4.74354268 24.51210271 -5.33984375 26.33569336 C-6.24956524 29.12366761 -7.14480274 31.91601777 -8.0390625 34.70898438 C-8.61631778 36.48726173 -9.19441402 38.26526636 -9.7734375 40.04296875 C-10.03917572 40.8753154 -10.30491394 41.70766205 -10.57870483 42.56523132 C-11.88009167 46.50733471 -13.03646952 49.79919948 -15.875 52.9375 C-21.75 52.0625 -21.75 52.0625 -22.875 50.9375 C-22.63269817 44.0318979 -20.77223866 37.93920437 -18.60302734 31.43530273 C-17.62320397 28.47689365 -16.875 26.07748386 -16.875 22.9375 C-17.31084663 23.37426843 -17.74669327 23.81103685 -18.19574738 24.26104069 C-28.82744093 34.91487047 -39.46194012 45.56589106 -50.09952545 56.21383762 C-55.24382482 61.36328147 -60.38718893 66.51365288 -65.52832031 71.66625977 C-70.01213929 76.16008225 -74.49774528 80.65211213 -78.9854579 85.14204639 C-81.35903871 87.51692473 -83.73147463 89.89291941 -86.10231018 92.27054024 C-88.75662003 94.93214197 -91.41407666 97.59056417 -94.07226562 100.24829102 C-94.84766693 101.0272876 -95.62306824 101.80628418 -96.42196655 102.60888672 C-99.79810873 105.97871121 -103.19588235 109.26369932 -106.81309509 112.37460327 C-111.66640939 116.55947041 -116.15208143 121.09030934 -120.66821289 125.63305664 C-121.62331565 126.5900832 -122.57864976 127.54687892 -123.53419495 128.50346375 C-125.57627134 130.54867865 -127.61678937 132.59543074 -129.65608406 134.64341927 C-132.88613086 137.88709389 -136.12008288 141.12685652 -139.354599 144.36607361 C-146.21854737 151.241077 -153.07824529 158.12031417 -159.9375 165 C-167.34837347 172.43293956 -174.75999313 179.86512607 -182.17651361 187.29243177 C-185.38651571 190.50739154 -188.59406969 193.72476739 -191.79971898 196.94406712 C-193.79897424 198.95082187 -195.80033529 200.95546654 -197.80225182 202.95956612 C-199.16112252 204.3211778 -200.51746954 205.68530667 -201.87371826 207.04953003 C-214.67922133 219.85613045 -214.67922133 219.85613045 -218.515625 220.1171875 C-221.61425752 218.56787124 -223.35492559 216.68124597 -225.625 214.0625 C-226.05619141 213.57072266 -226.48738281 213.07894531 -226.93164062 212.57226562 C-230.59177559 208.36552192 -234.09273833 204.02678207 -237.59375 199.6875 C-239.94218968 196.85650422 -242.38409902 194.14366402 -244.875 191.4375 C-248.96851091 186.99022888 -252.79942499 182.39032537 -256.59375 177.6875 C-258.94218968 174.85650422 -261.38409902 172.14366402 -263.875 169.4375 C-267.96851091 164.99022888 -271.79942499 160.39032537 -275.59375 155.6875 C-278.72528253 151.91250188 -282.04912359 148.33037418 -285.37890625 144.73046875 C-288.76078716 140.946361 -291.86663953 136.977387 -294.96484375 132.95703125 C-295.59519531 132.29058594 -296.22554688 131.62414062 -296.875 130.9375 C-300.51338589 130.9375 -301.30255408 132.01696928 -303.79098511 134.49133301 C-304.30226959 135.01497437 -304.81355408 135.53861572 -305.34033203 136.078125 C-305.88536377 136.62432495 -306.43039551 137.1705249 -306.99194336 137.73327637 C-308.79595381 139.54448827 -310.58921953 141.36597638 -312.3828125 143.1875 C-313.63093647 144.44375611 -314.87979672 145.69928109 -316.12936401 146.95410156 C-319.4201237 150.26200323 -322.70221656 153.57836746 -325.98217773 156.89697266 C-331.23772425 162.211656 -336.5059797 167.51373536 -341.77474594 172.81530762 C-343.61941282 174.67399845 -345.46025013 176.53641786 -347.30056763 178.39941406 C-348.42311667 179.53198109 -349.54574224 180.66447228 -350.66845703 181.796875 C-351.18378998 182.32051636 -351.69912292 182.84415771 -352.23007202 183.38366699 C-353.4261739 184.5873323 -354.64784542 185.76550959 -355.875 186.9375 C-356.205 186.9375 -356.535 186.9375 -356.875 186.9375 C-357.74564801 181.66616054 -358.54701994 176.05330416 -355.93554306 171.1868248 C-352.72084308 166.76991232 -348.68845155 163.09308401 -344.73046875 159.35546875 C-343.47921504 158.12528946 -342.23091056 156.89210391 -340.98542786 155.65608215 C-337.71748396 152.42999793 -334.40887836 149.24896749 -331.09039307 146.07501221 C-328.38166565 143.47031297 -325.70325313 140.83559762 -323.02587414 138.19874096 C-317.50019877 132.75746786 -311.95529196 127.33524123 -306.35620117 121.96948242 C-305.58691788 121.22240524 -305.58691788 121.22240524 -304.80209351 120.4602356 C-302.48519083 118.25535521 -300.95491816 116.96413939 -297.875 115.9375 C-293.31004608 117.97651275 -290.4822216 121.40461411 -287.375 125.1875 C-286.31306656 126.45360042 -285.25054648 127.71920897 -284.1875 128.984375 C-283.64222656 129.63728516 -283.09695313 130.29019531 -282.53515625 130.96289062 C-279.8525358 134.15363095 -277.11263818 137.29398149 -274.375 140.4375 C-269.69308834 145.82921396 -265.03663711 151.24197167 -260.39453125 156.66796875 C-256.7378562 160.93888843 -253.06064521 165.19156669 -249.375 169.4375 C-244.70289817 174.81985009 -240.05413938 180.22138711 -235.42089844 185.63720703 C-229.60395299 192.43138383 -223.73924774 199.18415664 -217.875 205.9375 C-216.21994482 204.52380703 -214.5656895 203.10916947 -212.91493225 201.69046021 C-211.63886502 200.59390659 -210.3603178 199.50022489 -209.07810974 198.41085815 C-203.49263758 193.61014393 -198.2883819 188.47918463 -193.09765625 183.2578125 C-192.14417602 182.30240844 -191.19046442 181.34723524 -190.23654175 180.39227295 C-188.19774161 178.35033416 -186.16049993 176.30685811 -184.1244812 174.262146 C-180.89836223 171.02239546 -177.66833478 167.7865602 -174.43774414 164.55126953 C-167.58051487 157.68298495 -160.72753241 150.8104702 -153.875 143.9375 C-146.47465879 136.51508716 -139.07357119 129.09342766 -131.66757488 121.67665672 C-128.46286567 118.46699561 -125.26060325 115.25491994 -122.06025696 112.04090881 C-120.06205171 110.03519189 -118.06172969 108.03159602 -116.06085587 106.02854156 C-114.70575258 104.67070409 -113.35317454 103.31034789 -112.0007019 101.94989014 C-107.72278807 97.67161033 -103.37436848 93.56764374 -98.78771973 89.62339592 C-95.44256908 86.67493685 -92.31723863 83.51030497 -89.17382812 80.34985352 C-88.45089569 79.62706711 -87.72796326 78.9042807 -86.98312378 78.15959167 C-84.6217844 75.79756209 -82.26399535 73.43202287 -79.90625 71.06640625 C-78.25880478 69.41709367 -76.61113694 67.76800343 -74.96325684 66.11912537 C-70.64731493 61.79938328 -66.33438583 57.47664547 -62.02209473 53.15325928 C-57.61291314 48.73380959 -53.20086464 44.31722402 -48.7890625 39.90039062 C-40.14824651 31.24888144 -31.51061329 22.59420212 -22.875 13.9375 C-25.09278764 14.2436427 -27.31015486 14.55283191 -29.52734375 14.86328125 C-30.76218506 15.03512939 -31.99702637 15.20697754 -33.26928711 15.3840332 C-37.12750217 15.97625837 -40.89865682 16.75429081 -44.69140625 17.66796875 C-47.33631556 17.99444235 -49.32000781 17.67296364 -51.875 16.9375 C-53.875 14.9375 -53.875 14.9375 -54.25 12.5 C-53.875 9.9375 -53.875 9.9375 -52.45288086 8.4050293 C-48.59287698 6.20761635 -44.59709576 5.66066062 -40.25390625 4.89453125 C-39.31699448 4.72120773 -38.3800827 4.54788422 -37.41477966 4.36930847 C-35.43623019 4.00547363 -33.45670807 3.64689412 -31.47631836 3.29321289 C-28.45002255 2.7522385 -25.42709077 2.19494319 -22.40429688 1.63476562 C-20.47934257 1.28289053 -18.55421754 0.93194783 -16.62890625 0.58203125 C-15.27557945 0.33366264 -15.27557945 0.33366264 -13.89491272 0.08027649 C-3.2069291 -1.81725983 -3.2069291 -1.81725983 0 0 Z " fill="#6C96A2" transform="translate(560.875,285.0625)"/>
<path d="M0 0 C22.44 0 44.88 0 68 0 C68 32.67 68 65.34 68 99 C60.57448842 91.57448842 53.75708854 83.77778517 47.14453125 75.625 C41.77810527 68.08203168 41.77810527 68.08203168 34.1875 63.5859375 C30.46974429 63.22743963 27.93836467 63.39827569 24.74609375 65.4453125 C22.61170735 67.34495251 20.57644366 69.30545713 18.58984375 71.35888672 C15.97482945 74.05823041 13.30366659 76.70141305 10.64282227 79.35546875 C9.1794281 80.81999695 7.72151002 82.2900187 6.26928711 83.765625 C5.6016333 84.44238281 4.93397949 85.11914062 4.24609375 85.81640625 C3.64466553 86.42943604 3.0432373 87.04246582 2.42358398 87.67407227 C1 89 1 89 0 89 C0 59.63 0 30.26 0 0 Z " fill="#6B95A1" transform="translate(231,324)"/>
<path d="M0 0 C10.15295012 8.19575492 14.43990359 17.83938526 15.9453125 30.5703125 C17.11765767 42.19092689 14.18652784 54.36621647 6.9453125 63.5703125 C0.48541056 70.94067041 -7.84387688 75.25031625 -17.62890625 76.05078125 C-29.03155619 76.56846156 -37.65663481 74.67472366 -47.3671875 68.4453125 C-58.30295026 56.74658955 -60.85128046 44.9405623 -60.3984375 29.43359375 C-59.84525822 19.18594766 -56.34049644 10.84216395 -49.0546875 3.5703125 C-35.26502377 -8.50152622 -15.41776311 -10.42415562 0 0 Z " fill="#FCFCFE" transform="translate(894.0546875,362.4296875)"/>
<path d="M0 0 C22.77 0 45.54 0 69 0 C69.165 7.775625 69.33 15.55125 69.5 23.5625 C69.57283203 26.00470947 69.64566406 28.44691895 69.72070312 30.96313477 C69.74408324 32.91418956 69.76446543 34.86528357 69.78125 36.81640625 C69.82217773 37.81700073 69.86310547 38.81759521 69.90527344 39.84851074 C69.9122298 46.85444201 69.9122298 46.85444201 67.36791992 50.04953003 C65.32163148 51.83384037 63.20307751 53.41547519 61 55 C59.98271551 55.93842833 58.98537745 56.89924943 58.015625 57.88671875 C56.58757545 59.33292148 55.15928827 60.77889541 53.72753906 62.22143555 C52.14917288 63.8118185 50.57414991 65.40544445 49 67 C42.52178711 73.56218973 36.06232175 80.05676136 29 86 C27.66609556 87.14516844 26.33273732 88.29097349 25 89.4375 C23.515 90.7059375 23.515 90.7059375 22 92 C21.2265625 91.09378906 20.453125 90.18757813 19.65625 89.25390625 C18.60428122 88.02333956 17.55218957 86.79287791 16.5 85.5625 C15.68547363 84.60875488 15.68547363 84.60875488 14.85449219 83.63574219 C11.09111968 79.24031894 7.25729602 74.92049081 3.328125 70.671875 C2 69 2 69 2 67 C1.34 67 0.68 67 0 67 C0 44.89 0 22.78 0 0 Z " fill="#6C96A2" transform="translate(321,383)"/>
<path d="M0 0 C1.02370193 0.01110306 2.04740387 0.02220612 3.10212708 0.03364563 C4.84359261 0.03421211 4.84359261 0.03421211 6.62023926 0.03479004 C8.50003227 0.07349968 8.50003227 0.07349968 10.4178009 0.11299133 C12.34248955 0.12360344 12.34248955 0.12360344 14.30606079 0.13442993 C17.71451137 0.15350499 21.12189356 0.20260688 24.52992249 0.25794983 C28.00867763 0.30913333 31.48760574 0.33194184 34.96662903 0.35713196 C41.79063515 0.41072753 48.61393234 0.49604464 55.43733215 0.60127258 C54.69220093 2.08563256 53.92945145 3.56115827 53.15925598 5.03266907 C52.73638809 5.85524704 52.3135202 6.67782501 51.87783813 7.52532959 C50.43733215 9.60127258 50.43733215 9.60127258 46.8865509 10.69892883 C45.02450012 10.68152649 45.02450012 10.68152649 43.12483215 10.66377258 C41.87057434 10.67537415 40.61631653 10.68697571 39.3240509 10.69892883 C38.37143372 10.66670227 37.41881653 10.63447571 36.43733215 10.60127258 C37.42733215 12.91127258 38.41733215 15.22127258 39.43733215 17.60127258 C44.71733215 17.93127258 49.99733215 18.26127258 55.43733215 18.60127258 C52.74634183 25.32874838 52.74634183 25.32874838 50.43733215 27.60127258 C47.7381134 27.99189758 47.7381134 27.99189758 44.74983215 27.85127258 C43.75596497 27.81517883 42.76209778 27.77908508 41.7381134 27.74189758 C40.97885559 27.69549133 40.21959778 27.64908508 39.43733215 27.60127258 C39.30198059 28.15814758 39.16662903 28.71502258 39.0271759 29.28877258 C36.9563578 36.62963677 33.5383213 41.93054577 27.0740509 46.14033508 C21.67503329 49.01197431 16.39572453 50.39267702 10.43733215 51.60127258 C17.63166529 61.14989747 24.96051437 70.5478281 32.59455872 79.74946594 C44.43733215 94.02441784 44.43733215 94.02441784 44.43733215 95.60127258 C39.41047365 96.32514021 34.3968884 96.9260331 29.43733215 95.60127258 C25.6977628 92.72705812 23.2299087 89.26424124 20.6497345 85.38056946 C18.59693135 82.36791756 16.27954668 79.56840482 13.99983215 76.72627258 C13.08383972 75.55720925 12.16979175 74.38661991 11.25764465 73.21455383 C9.30194952 70.70568422 7.33792653 68.20367989 5.36701965 65.70674133 C4.86613831 65.07171692 4.36525696 64.4366925 3.84919739 63.78242493 C2.88845999 62.56475908 1.9270664 61.34761059 0.96492004 60.13105774 C-3.62036466 54.31012536 -4.80090186 51.86741011 -4.56266785 44.60127258 C-3.43989441 44.50330383 -2.31712097 44.40533508 -1.1603241 44.30439758 C10.74681771 43.43663785 10.74681771 43.43663785 21.43733215 38.60127258 C23.37427798 36.01923537 23.37427798 36.01923537 24.43733215 33.60127258 C25.09733215 33.60127258 25.75733215 33.60127258 26.43733215 33.60127258 C26.43733215 31.62127258 26.43733215 29.64127258 26.43733215 27.60127258 C15.21733215 27.60127258 3.99733215 27.60127258 -7.56266785 27.60127258 C-1.56266785 18.60127258 -1.56266785 18.60127258 1.50520325 17.48774719 C2.56304016 17.49298401 3.62087708 17.49822083 4.71076965 17.50361633 C5.86448059 17.48750305 7.01819153 17.47138977 8.2068634 17.45478821 C9.99157043 17.49636047 9.99157043 17.49636047 11.81233215 17.53877258 C13.63184387 17.52813782 13.63184387 17.52813782 15.4881134 17.51728821 C18.47356899 17.50553445 21.45276204 17.53481454 24.43733215 17.60127258 C21.51134446 13.32482903 19.52215188 11.66874038 14.43733215 10.60127258 C10.64818561 10.2446299 6.86558193 10.09405064 3.06233215 9.97627258 C2.04010559 9.93760071 1.01787903 9.89892883 -0.0353241 9.85908508 C-2.54426381 9.76529294 -5.05320549 9.67959379 -7.56266785 9.60127258 C-6.9159737 8.2581386 -6.24363207 6.9273608 -5.56266785 5.60127258 C-5.16001205 4.74028458 -4.75735626 3.87929657 -4.34249878 2.99221802 C-2.56266785 0.60127258 -2.56266785 0.60127258 0 0 Z " fill="#6C96A1" transform="translate(326.5626678466797,277.3987274169922)"/>
<path d="M0 0 C3.37666772 2.31090697 5.2756326 4.26675572 7.5 7.7109375 C8.098125 8.5978125 8.69625 9.4846875 9.3125 10.3984375 C11.4281151 16.29989015 11.58171621 21.72334035 9.43359375 27.65625 C5.78541479 34.95260791 1.30985817 39.78565257 -6.30078125 42.83203125 C-14.45424714 45.07199441 -23.05314303 45.0105635 -30.625 41.0859375 C-36.14484296 37.60835441 -39.84467897 33.73041525 -42.5 27.7109375 C-43.76483048 21.76073497 -44.48369144 15.08839908 -41.3046875 9.67578125 C-31.00145819 -4.75413415 -15.91525468 -9.01582246 0 0 Z " fill="#6C96A1" transform="translate(1196.5,258.2890625)"/>
<path d="M0 0 C6.69125621 6.15873409 10.38235647 13.23668943 12.2578125 22.078125 C12.2578125 22.408125 12.2578125 22.738125 12.2578125 23.078125 C-11.8321875 23.078125 -35.9221875 23.078125 -60.7421875 23.078125 C-59.38084221 12.18736269 -56.35260631 6.01099669 -47.7421875 -0.921875 C-33.08542744 -10.38171197 -14.07417868 -10.77059333 0 0 Z " fill="#FCFCFD" transform="translate(1723.7421875,360.921875)"/>
</svg>
